<svg xmlns="http://www.w3.org/2000/svg" xmlns:xlink="http://www.w3.org/1999/xlink" width="100" zoomAndPan="magnify" viewBox="0 0 75 74.999997" height="100" preserveAspectRatio="xMidYMid meet" version="1.0"><defs><g/><clipPath id="efce4939e8"><path d="M 19 8 L 56 8 L 56 51 L 19 51 Z M 19 8 " clip-rule="nonzero"/></clipPath><clipPath id="66b373eee6"><path d="M 11.179688 21.644531 L 47.578125 3.886719 L 64.019531 37.589844 L 27.621094 55.347656 Z M 11.179688 21.644531 " clip-rule="nonzero"/></clipPath><clipPath id="28cf79dc33"><path d="M 11.179688 21.644531 L 47.578125 3.886719 L 64.019531 37.589844 L 27.621094 55.347656 Z M 11.179688 21.644531 " clip-rule="nonzero"/></clipPath><clipPath id="ba7d085eb2"><path d="M 11.179688 21.644531 L 47.578125 3.886719 L 64.019531 37.589844 L 27.621094 55.347656 Z M 11.179688 21.644531 " clip-rule="nonzero"/></clipPath><clipPath id="86e54229ef"><path d="M 20 9 L 39 9 L 39 40 L 20 40 Z M 20 9 " clip-rule="nonzero"/></clipPath><clipPath id="d942046f84"><path d="M 11.179688 21.644531 L 47.578125 3.886719 L 64.019531 37.589844 L 27.621094 55.347656 Z M 11.179688 21.644531 " clip-rule="nonzero"/></clipPath><clipPath id="44cf0f3cca"><path d="M 11.179688 21.644531 L 47.578125 3.886719 L 64.019531 37.589844 L 27.621094 55.347656 Z M 11.179688 21.644531 " clip-rule="nonzero"/></clipPath><clipPath id="643295e807"><path d="M 11.179688 21.644531 L 47.578125 3.886719 L 64.019531 37.589844 L 27.621094 55.347656 Z M 11.179688 21.644531 " clip-rule="nonzero"/></clipPath><clipPath id="3a160db6e8"><path d="M 37 9 L 55 9 L 55 39 L 37 39 Z M 37 9 " clip-rule="nonzero"/></clipPath><clipPath id="17e66d1af0"><path d="M 11.179688 21.644531 L 47.578125 3.886719 L 64.019531 37.589844 L 27.621094 55.347656 Z M 11.179688 21.644531 " clip-rule="nonzero"/></clipPath><clipPath id="1f9ee7d03e"><path d="M 11.179688 21.644531 L 47.578125 3.886719 L 64.019531 37.589844 L 27.621094 55.347656 Z M 11.179688 21.644531 " clip-rule="nonzero"/></clipPath><clipPath id="5e331b2be1"><path d="M 11.179688 21.644531 L 47.578125 3.886719 L 64.019531 37.589844 L 27.621094 55.347656 Z M 11.179688 21.644531 " clip-rule="nonzero"/></clipPath><clipPath id="d85f15fac3"><path d="M 20 38 L 55 38 L 55 42 L 20 42 Z M 20 38 " clip-rule="nonzero"/></clipPath><clipPath id="4814c17347"><path d="M 11.179688 21.644531 L 47.578125 3.886719 L 64.019531 37.589844 L 27.621094 55.347656 Z M 11.179688 21.644531 " clip-rule="nonzero"/></clipPath><clipPath id="43bf38fa93"><path d="M 11.179688 21.644531 L 47.578125 3.886719 L 64.019531 37.589844 L 27.621094 55.347656 Z M 11.179688 21.644531 " clip-rule="nonzero"/></clipPath><clipPath id="f81020eaa3"><path d="M 11.179688 21.644531 L 47.578125 3.886719 L 64.019531 37.589844 L 27.621094 55.347656 Z M 11.179688 21.644531 " clip-rule="nonzero"/></clipPath><clipPath id="ad1b628625"><path d="M 20 20 L 38 20 L 38 51 L 20 51 Z M 20 20 " clip-rule="nonzero"/></clipPath><clipPath id="d7147340bf"><path d="M 11.179688 21.644531 L 47.578125 3.886719 L 64.019531 37.589844 L 27.621094 55.347656 Z M 11.179688 21.644531 " clip-rule="nonzero"/></clipPath><clipPath id="52e139c3e2"><path d="M 11.179688 21.644531 L 47.578125 3.886719 L 64.019531 37.589844 L 27.621094 55.347656 Z M 11.179688 21.644531 " clip-rule="nonzero"/></clipPath><clipPath id="2357b19333"><path d="M 11.179688 21.644531 L 47.578125 3.886719 L 64.019531 37.589844 L 27.621094 55.347656 Z M 11.179688 21.644531 " clip-rule="nonzero"/></clipPath><clipPath id="58977ca297"><path d="M 36 20 L 56 20 L 56 42 L 36 42 Z M 36 20 " clip-rule="nonzero"/></clipPath><clipPath id="6557fc4cda"><path d="M 11.179688 21.644531 L 47.578125 3.886719 L 64.019531 37.589844 L 27.621094 55.347656 Z M 11.179688 21.644531 " clip-rule="nonzero"/></clipPath><clipPath id="76b3d2525c"><path d="M 11.179688 21.644531 L 47.578125 3.886719 L 64.019531 37.589844 L 27.621094 55.347656 Z M 11.179688 21.644531 " clip-rule="nonzero"/></clipPath><clipPath id="6680c70b41"><path d="M 11.179688 21.644531 L 47.578125 3.886719 L 64.019531 37.589844 L 27.621094 55.347656 Z M 11.179688 21.644531 " clip-rule="nonzero"/></clipPath><clipPath id="ef851fb661"><path d="M 27 22 L 47 22 L 47 25 L 27 25 Z M 27 22 " clip-rule="nonzero"/></clipPath><clipPath id="e6059968b3"><path d="M 11.179688 21.644531 L 47.578125 3.886719 L 64.019531 37.589844 L 27.621094 55.347656 Z M 11.179688 21.644531 " clip-rule="nonzero"/></clipPath><clipPath id="7ea0366cb1"><path d="M 11.179688 21.644531 L 47.578125 3.886719 L 64.019531 37.589844 L 27.621094 55.347656 Z M 11.179688 21.644531 " clip-rule="nonzero"/></clipPath><clipPath id="5740c05f08"><path d="M 11.179688 21.644531 L 47.578125 3.886719 L 64.019531 37.589844 L 27.621094 55.347656 Z M 11.179688 21.644531 " clip-rule="nonzero"/></clipPath></defs><g clip-path="url(#efce4939e8)"><g clip-path="url(#66b373eee6)"><g clip-path="url(#28cf79dc33)"><g clip-path="url(#ba7d085eb2)"><path fill="#000000" d="M 21.324219 20.160156 L 20.519531 39.15625 L 20.351562 38.835938 L 37.503906 49.855469 L 37.105469 49.859375 L 54.070312 38.71875 L 53.90625 39.007812 L 54.777344 20.25 L 54.949219 20.574219 L 37.296875 9.578125 L 37.695312 9.570312 L 21.160156 20.453125 L 21.324219 20.160156 M 20.589844 20.136719 C 20.597656 20.019531 20.65625 19.910156 20.757812 19.84375 L 37.292969 8.964844 C 37.414062 8.882812 37.566406 8.882812 37.6875 8.957031 L 55.339844 19.953125 C 55.453125 20.023438 55.519531 20.148438 55.511719 20.277344 L 54.640625 39.035156 C 54.632812 39.152344 54.570312 39.261719 54.472656 39.328125 L 37.507812 50.46875 C 37.382812 50.546875 37.226562 50.550781 37.105469 50.472656 L 19.949219 39.449219 C 19.84375 39.378906 19.777344 39.257812 19.785156 39.128906 Z M 20.589844 20.136719 " fill-opacity="1" fill-rule="nonzero"/></g></g></g></g><g clip-path="url(#86e54229ef)"><g clip-path="url(#d942046f84)"><g clip-path="url(#44cf0f3cca)"><g clip-path="url(#643295e807)"><path fill="#000000" d="M 20.226562 38.671875 L 26.882812 23.476562 C 26.894531 23.449219 26.910156 23.425781 26.925781 23.402344 L 37.390625 9.445312 C 37.515625 9.285156 37.742188 9.25 37.90625 9.371094 C 38.066406 9.488281 38.101562 9.71875 37.980469 9.878906 L 27.511719 23.835938 L 27.554688 23.761719 L 20.898438 38.960938 C 20.820312 39.148438 20.601562 39.234375 20.417969 39.152344 C 20.230469 39.074219 20.144531 38.859375 20.226562 38.671875 Z M 20.226562 38.671875 " fill-opacity="1" fill-rule="nonzero"/></g></g></g></g><g clip-path="url(#3a160db6e8)"><g clip-path="url(#17e66d1af0)"><g clip-path="url(#1f9ee7d03e)"><g clip-path="url(#5e331b2be1)"><path fill="#000000" d="M 38.082031 9.902344 L 46.582031 22.402344 C 46.589844 22.417969 46.601562 22.433594 46.609375 22.449219 L 54.324219 38.375 C 54.414062 38.558594 54.335938 38.777344 54.152344 38.863281 C 53.96875 38.953125 53.75 38.878906 53.664062 38.695312 L 45.945312 22.769531 L 45.972656 22.8125 L 37.476562 10.3125 C 37.363281 10.144531 37.40625 9.917969 37.574219 9.804688 C 37.742188 9.691406 37.96875 9.734375 38.082031 9.902344 Z M 38.082031 9.902344 " fill-opacity="1" fill-rule="nonzero"/></g></g></g></g><g clip-path="url(#d85f15fac3)"><g clip-path="url(#4814c17347)"><g clip-path="url(#43bf38fa93)"><g clip-path="url(#f81020eaa3)"><path fill="#000000" d="M 20.570312 38.605469 L 36.828125 41.15625 L 36.71875 41.15625 L 53.6875 38.667969 C 53.890625 38.636719 54.074219 38.773438 54.105469 38.972656 C 54.132812 39.171875 53.992188 39.359375 53.792969 39.390625 L 36.820312 41.878906 C 36.785156 41.882812 36.746094 41.882812 36.710938 41.878906 L 20.453125 39.324219 C 20.253906 39.292969 20.117188 39.109375 20.148438 38.910156 C 20.183594 38.710938 20.371094 38.574219 20.570312 38.605469 Z M 20.570312 38.605469 " fill-opacity="1" fill-rule="nonzero"/></g></g></g></g><g clip-path="url(#ad1b628625)"><g clip-path="url(#d7147340bf)"><g clip-path="url(#52e139c3e2)"><g clip-path="url(#2357b19333)"><path fill="#000000" d="M 36.691406 49.875 L 36.371094 41.382812 L 36.414062 41.542969 L 26.984375 24.199219 L 27.117188 24.339844 L 21.011719 20.710938 C 20.839844 20.609375 20.785156 20.382812 20.886719 20.210938 C 20.992188 20.035156 21.21875 19.980469 21.390625 20.082031 L 27.496094 23.710938 C 27.550781 23.746094 27.597656 23.792969 27.628906 23.847656 L 37.058594 41.191406 C 37.085938 41.242188 37.101562 41.296875 37.105469 41.351562 L 37.425781 49.84375 C 37.429688 50.042969 37.273438 50.214844 37.070312 50.222656 C 36.867188 50.234375 36.699219 50.078125 36.691406 49.875 Z M 36.691406 49.875 " fill-opacity="1" fill-rule="nonzero"/></g></g></g></g><g clip-path="url(#58977ca297)"><g clip-path="url(#6557fc4cda)"><g clip-path="url(#76b3d2525c)"><g clip-path="url(#6680c70b41)"><path fill="#000000" d="M 36.5 40.875 L 46.039062 22.488281 C 46.085938 22.394531 46.171875 22.328125 46.273438 22.300781 L 54.585938 20.109375 C 54.78125 20.054688 54.984375 20.171875 55.035156 20.367188 C 55.085938 20.5625 54.964844 20.761719 54.769531 20.8125 L 46.457031 23.007812 L 46.691406 22.820312 L 37.152344 41.203125 C 37.058594 41.382812 36.839844 41.457031 36.65625 41.363281 C 36.476562 41.273438 36.40625 41.054688 36.5 40.875 Z M 36.5 40.875 " fill-opacity="1" fill-rule="nonzero"/></g></g></g></g><g clip-path="url(#ef851fb661)"><g clip-path="url(#e6059968b3)"><g clip-path="url(#7ea0366cb1)"><g clip-path="url(#5740c05f08)"><path fill="#000000" d="M 45.996094 23.234375 L 27.464844 24.199219 C 27.261719 24.210938 27.089844 24.054688 27.078125 23.855469 C 27.070312 23.652344 27.226562 23.480469 27.429688 23.472656 L 45.964844 22.503906 C 46.164062 22.492188 46.335938 22.648438 46.347656 22.851562 C 46.355469 23.050781 46.199219 23.222656 45.996094 23.234375 Z M 45.996094 23.234375 " fill-opacity="1" fill-rule="nonzero"/></g></g></g></g><g fill="#000000" fill-opacity="1"><g transform="translate(17.298974, 66.574961)"><g><path d="M 8.84375 -3.15625 C 8.84375 -2.488281 8.691406 -1.914062 8.390625 -1.4375 C 8.097656 -0.96875 7.679688 -0.609375 7.140625 -0.359375 C 6.609375 -0.117188 5.992188 0 5.296875 0 L 1.578125 0 L 1.578125 -11.4375 L 4.578125 -11.4375 C 5.773438 -11.4375 6.695312 -11.191406 7.34375 -10.703125 C 8 -10.222656 8.328125 -9.492188 8.328125 -8.515625 C 8.328125 -7.835938 8.148438 -7.265625 7.796875 -6.796875 C 7.441406 -6.335938 6.945312 -6.046875 6.3125 -5.921875 C 6.78125 -5.859375 7.207031 -5.691406 7.59375 -5.421875 C 7.988281 -5.160156 8.296875 -4.828125 8.515625 -4.421875 C 8.734375 -4.023438 8.84375 -3.601562 8.84375 -3.15625 Z M 2 -11.015625 L 2 -6.078125 L 4.734375 -6.078125 C 6.835938 -6.078125 7.890625 -6.898438 7.890625 -8.546875 C 7.890625 -10.160156 6.832031 -10.984375 4.71875 -11.015625 Z M 8.421875 -3.140625 C 8.421875 -3.585938 8.300781 -4 8.0625 -4.375 C 7.832031 -4.757812 7.488281 -5.066406 7.03125 -5.296875 C 6.570312 -5.535156 6.023438 -5.65625 5.390625 -5.65625 L 2 -5.65625 L 2 -0.421875 L 5.296875 -0.421875 C 5.941406 -0.421875 6.492188 -0.523438 6.953125 -0.734375 C 7.421875 -0.953125 7.78125 -1.265625 8.03125 -1.671875 C 8.289062 -2.078125 8.421875 -2.566406 8.421875 -3.140625 Z M 8.421875 -3.140625 "/></g></g><g transform="translate(27.00647, 66.574961)"><g><path d="M 1.578125 0 L 1.578125 -11.4375 L 4.734375 -11.4375 C 5.628906 -11.4375 6.4375 -11.222656 7.15625 -10.796875 C 7.875 -10.378906 8.4375 -9.785156 8.84375 -9.015625 C 9.257812 -8.253906 9.46875 -7.390625 9.46875 -6.421875 L 9.46875 -5.015625 C 9.46875 -4.046875 9.257812 -3.175781 8.84375 -2.40625 C 8.4375 -1.644531 7.875 -1.050781 7.15625 -0.625 C 6.4375 -0.207031 5.628906 0 4.734375 0 Z M 2 -11.015625 L 2 -0.421875 L 4.734375 -0.421875 C 5.546875 -0.421875 6.28125 -0.617188 6.9375 -1.015625 C 7.59375 -1.410156 8.101562 -1.953125 8.46875 -2.640625 C 8.84375 -3.335938 9.03125 -4.128906 9.03125 -5.015625 L 9.03125 -6.4375 C 9.03125 -7.3125 8.84375 -8.097656 8.46875 -8.796875 C 8.101562 -9.492188 7.59375 -10.035156 6.9375 -10.421875 C 6.28125 -10.816406 5.546875 -11.015625 4.734375 -11.015625 Z M 2 -11.015625 "/></g></g><g transform="translate(37.5393, 66.574961)"><g><path d="M 8.96875 0 L 5.921875 -4.890625 L 1.953125 -4.890625 L 1.953125 0 L 1.53125 0 L 1.53125 -11.4375 L 5.171875 -11.4375 C 5.910156 -11.4375 6.5625 -11.304688 7.125 -11.046875 C 7.695312 -10.796875 8.140625 -10.421875 8.453125 -9.921875 C 8.773438 -9.429688 8.9375 -8.835938 8.9375 -8.140625 C 8.9375 -7.609375 8.820312 -7.117188 8.59375 -6.671875 C 8.363281 -6.234375 8.050781 -5.867188 7.65625 -5.578125 C 7.269531 -5.285156 6.835938 -5.09375 6.359375 -5 L 9.421875 -0.109375 L 9.421875 0 Z M 1.953125 -11.015625 L 1.953125 -5.3125 L 5.5625 -5.3125 C 6.1875 -5.3125 6.71875 -5.441406 7.15625 -5.703125 C 7.601562 -5.972656 7.941406 -6.320312 8.171875 -6.75 C 8.398438 -7.1875 8.515625 -7.648438 8.515625 -8.140625 C 8.515625 -8.734375 8.375 -9.242188 8.09375 -9.671875 C 7.820312 -10.109375 7.4375 -10.441406 6.9375 -10.671875 C 6.4375 -10.898438 5.847656 -11.015625 5.171875 -11.015625 Z M 1.953125 -11.015625 "/></g></g><g transform="translate(48.072131, 66.574961)"><g><path d="M 1.046875 -11.03125 L 1.046875 -11.4375 L 8.625 -11.4375 L 8.625 -11.140625 L 1.3125 -0.421875 L 8.875 -0.421875 L 8.875 0 L 0.734375 0 L 0.734375 -0.34375 L 8.03125 -11.03125 Z M 1.046875 -11.03125 "/></g></g></g></svg>